<svg id="Layer_1" data-name="Layer 1" xmlns="http://www.w3.org/2000/svg" xmlns:xlink="http://www.w3.org/1999/xlink" viewBox="0 0 409.39 521.07"><defs><style>.cls-1,.cls-4{fill:#fff;}.cls-1{opacity:0.51;}.cls-2{opacity:0.47;fill:url(#linear-gradient);}.cls-3{opacity:0.82;}</style><linearGradient id="linear-gradient" y1="260.23" x2="408.94" y2="260.23" gradientUnits="userSpaceOnUse"><stop offset="0" stop-color="#009bdb"/><stop offset="0.22" stop-color="#246fbe"/><stop offset="0.46" stop-color="#4745a3"/><stop offset="0.68" stop-color="#61268f"/><stop offset="0.87" stop-color="#701482"/><stop offset="1" stop-color="#760d7e"/></linearGradient></defs><title>1</title><polygon class="cls-1" points="409.09 342.36 204.68 0.16 0.15 342.36 32.58 425.7 204.55 520.55 204.55 520.63 204.62 520.59 204.68 520.63 204.68 520.55 376.65 425.7 409.09 342.36"/><polygon class="cls-2" points="408.94 342.2 204.54 0 0 342.2 32.44 425.54 204.4 520.39 204.4 520.46 204.47 520.42 204.54 520.46 204.54 520.39 376.5 425.54 408.94 342.2"/><g class="cls-3"><polygon class="cls-4" points="204.38 0.02 0 342.2 32.28 425.56 71.18 447.27 109.61 318.23 56.71 412.73 107.24 313.6 79.64 244.31 110.93 306.95 204.38 0.02"/><polygon class="cls-4" points="74.11 448.89 132.71 481.1 158.54 434.46 208.9 7.74 206.37 3.65 74.11 448.89"/><polygon class="cls-4" points="161.97 434.26 204.99 521.07 135.59 482.79 161.97 434.26"/><polygon class="cls-4" points="211.65 516.31 339.05 446.04 278.75 297.24 211.65 516.31"/><polygon class="cls-4" points="339.62 445.81 372.86 427.48 212.65 12.64 200.54 84.37 339.62 445.81"/><polygon class="cls-4" points="409.39 342.81 376.95 426.15 222.17 29.18 409.39 342.81"/><polygon class="cls-4" points="201.23 99.56 192.44 186.57 245.32 275.84 254.04 234.76 201.23 99.56"/><polygon class="cls-4" points="192.44 186.57 179.28 304.17 199.39 477 244.01 282.63 192.44 186.57"/><polygon class="cls-4" points="257.48 241.46 275.06 293.67 208.77 516.95 202.98 503.34 257.48 241.46"/><polygon class="cls-4" points="174.69 309.54 201.23 491.07 163.31 421.87 174.69 309.54"/></g></svg>